<svg width="26" height="26" viewBox="0 0 26 26" fill="none" xmlns="http://www.w3.org/2000/svg"><path d="M13 3.25C7.625 3.25 3.25 7.625 3.25 13C3.25 18.375 7.625 22.75 13 22.75C13.9 22.75 14.625 23.475 14.625 24.375C14.625 25.275 13.9 26 13 26C5.825 26 0 20.175 0 13C0 5.825 5.825 0 13 0C20.175 0 26 5.825 26 13V14.625C26 17.325 23.825 19.5 21.125 19.5C19.625 19.5 18.3 18.825 17.4 17.775C16.25 18.85 14.7 19.5 13 19.5C9.4 19.5 6.5 16.6 6.5 13C6.5 9.4 9.4 6.5 13 6.5C14.425 6.5 15.725 6.95 16.8 7.725C17.1 7.475 17.475 7.325 17.875 7.325C18.775 7.325 19.5 8.05 19.5 8.95V13V14.625C19.5 15.525 20.225 16.25 21.125 16.25C22.025 16.25 22.75 15.525 22.75 14.625V13C22.75 7.625 18.375 3.25 13 3.25ZM16.25 13C16.25 11.2 14.8 9.75 13 9.75C11.2 9.75 9.75 11.2 9.75 13C9.75 14.8 11.2 16.25 13 16.25C14.8 16.25 16.25 14.8 16.25 13Z" fill="white"></path></svg>