<svg width="46" height="46" viewBox="0 0 46 46" fill="none" xmlns="http://www.w3.org/2000/svg" class="hover:opacity-70 duration-200"><rect y="0.36377" width="45.5909" height="45.5909" rx="1" fill="#3430FA"></rect><path d="M12.8919 20.0162L13.3663 20.8464C13.7815 21.558 14.4338 22.0917 15.264 22.3289L18.1698 23.1592C19.0001 23.3964 19.5931 24.1673 19.5931 25.0568V27.0731C19.5931 27.6068 19.8896 28.1406 20.364 28.3778C20.8384 28.615 21.1349 29.1487 21.1349 29.6824V31.6394C21.1349 32.4103 21.9059 33.0034 22.6175 32.7661C23.4477 32.5289 24.0407 31.8766 24.2187 31.1057L24.3373 30.572C24.5745 29.7417 25.1082 29.0301 25.8198 28.5557L26.2349 28.3185C27.0059 27.9034 27.421 27.0731 27.421 26.2429V25.8278C27.421 25.1754 27.1838 24.5824 26.7094 24.1673L26.5314 23.9894C26.057 23.515 25.464 23.2778 24.871 23.2778H22.7361C22.2024 23.2778 21.6094 23.1592 21.1349 22.8627L19.5338 21.7359C19.2966 21.6173 19.178 21.4394 19.0594 21.2022C18.8815 20.7278 19.1187 20.1941 19.5931 19.9568L19.8896 19.7789C20.2454 19.601 20.6012 19.601 20.957 19.7196L22.0838 20.0755C22.4989 20.1941 22.914 20.0755 23.1512 19.7196C23.3884 19.3638 23.3884 18.8894 23.0919 18.5929L22.4396 17.7627C21.9652 17.1696 21.9652 16.2801 22.4396 15.6871L23.2105 14.7975C23.6256 14.2638 23.7442 13.5522 23.3884 12.9592L23.2698 12.722C23.0919 12.722 22.914 12.722 22.7361 12.722C18.1698 12.7813 14.2559 15.8057 12.8919 20.0162ZM33.1733 23.1592C33.1733 21.3208 32.6989 19.601 31.8687 18.1185L30.564 18.6522C29.7931 18.9487 29.378 19.8382 29.6152 20.6092L30.4454 23.1592C30.6233 23.6929 31.0384 24.0487 31.5721 24.2266L32.9954 24.5824C33.114 24.108 33.1733 23.6336 33.1733 23.1592ZM10.0454 23.1592C10.0454 16.1022 15.7384 10.4092 22.7954 10.4092C29.8524 10.4092 35.5454 16.1022 35.5454 23.1592C35.5454 30.2161 29.8524 35.9092 22.7954 35.9092C15.7384 35.9092 10.0454 30.2161 10.0454 23.1592Z" fill="white"></path></svg>