<svg width="27" height="29" viewBox="0 0 27 29" fill="none" xmlns="http://www.w3.org/2000/svg"><path d="M23.1256 2.09991H20.7335C20.7275 2.09991 20.7215 2.0939 20.7215 2.0879V1.48144C20.7215 0.634813 20.0105 -0.0617076 19.1609 0.0043417C18.4198 0.0583821 17.8353 0.676844 17.8353 1.43941V2.0879C17.8353 2.0939 17.8293 2.09991 17.8233 2.09991H9.17072C9.16469 2.09991 9.15867 2.0939 9.15867 2.0879V1.43941C9.15867 0.676844 8.5742 0.0583821 7.82705 0.0043417C6.97746 -0.0617076 6.26646 0.634813 6.26646 1.48144V2.0939C6.26646 2.09991 6.26043 2.10591 6.25441 2.10591H3.86833C1.7293 2.09991 0 3.82319 0 5.94878V6.90349V9.78565V25.1451C0 27.2767 1.7293 29 3.86833 29H23.1317C25.2647 29 27 27.2767 27 25.1451V9.78565V6.90349V5.94878C26.994 3.82319 25.2647 2.09991 23.1256 2.09991ZM19.0524 15.7061L16.7809 17.9457L17.3171 21.1161C17.3593 21.3743 17.2508 21.6385 17.0339 21.7946C16.817 21.9507 16.5338 21.9687 16.2988 21.8427L13.497 20.3595L10.6952 21.8487C10.4602 21.9748 10.1709 21.9507 9.96005 21.8006C9.74314 21.6445 9.63468 21.3803 9.67686 21.1221L10.2131 17.9517L7.94153 15.7121C7.75474 15.5259 7.68846 15.2497 7.76679 15.0035C7.84512 14.7514 8.06806 14.5712 8.32716 14.5292L11.4604 14.0668L12.8643 11.1907C12.9848 10.9505 13.2258 10.8004 13.491 10.8004C13.7561 10.8004 14.0031 10.9505 14.1176 11.1907L15.5215 14.0668L18.6548 14.5292C18.9139 14.5712 19.1308 14.7514 19.2151 15.0035C19.2995 15.2557 19.2392 15.5199 19.0524 15.7061Z" fill="white"></path></svg>