<svg width="25" height="26" viewBox="0 0 25 26" fill="none" xmlns="http://www.w3.org/2000/svg"><path d="M24.9085 8.43378C25.0617 8.88292 24.9596 9.38196 24.6021 9.68138L22.3553 11.6775C22.4064 12.0768 22.4574 12.5259 22.4574 12.975C22.4574 13.4242 22.4064 13.8234 22.3553 14.2726L24.6021 16.2687C24.9596 16.5681 25.1128 17.0672 24.9085 17.5163C24.7043 18.1152 24.3979 18.714 24.0915 19.263L23.8362 19.6622C23.4787 20.2111 23.1213 20.7601 22.7128 21.2591C22.4064 21.6084 21.8957 21.7582 21.4362 21.6084L18.5255 20.7102C17.8106 21.2092 17.0447 21.6583 16.2277 22.0077L15.5638 24.9021C15.4617 25.3512 15.1043 25.7505 14.6447 25.8004C13.9298 25.9002 13.2149 26 12.4489 26C11.683 26 10.9681 25.9501 10.2532 25.8004C9.79362 25.7006 9.43617 25.3512 9.33404 24.9021L8.72128 21.9578C7.90425 21.6084 7.1383 21.2092 6.4234 20.6603L3.56383 21.5585C3.10425 21.7083 2.59361 21.5585 2.28723 21.2092C1.87872 20.7102 1.47021 20.2111 1.16383 19.6123L0.908508 19.2131C0.602125 18.6641 0.295741 18.0653 0.0914861 17.4664C-0.0617054 17.0173 0.0404223 16.5182 0.397869 16.2188L2.64468 14.2226C2.59361 13.8234 2.54255 13.4242 2.54255 12.975C2.54255 12.5259 2.59361 12.1267 2.64468 11.6775L0.397869 9.68138C0.0404223 9.38196 -0.112769 8.88292 0.0914861 8.43378C0.295741 7.83493 0.602125 7.23608 0.908508 6.68714L1.16383 6.28791C1.52127 5.73896 1.87872 5.19002 2.28723 4.69098C2.59361 4.34165 3.10425 4.19194 3.56383 4.34165L6.47447 5.23992C7.18936 4.74088 7.95532 4.29175 8.77234 3.94242L9.43617 1.04798C9.5383 0.598848 9.89574 0.199616 10.3553 0.149712C11.0191 0.049904 11.734 0 12.5 0C13.266 0 13.9809 0.049904 14.6957 0.199616C15.1553 0.299424 15.5128 0.648752 15.6149 1.09789L16.2787 3.99232C17.0957 4.34165 17.8617 4.74088 18.5766 5.28983L21.4362 4.34165C21.8957 4.19194 22.4064 4.34165 22.7128 4.69098C23.1213 5.19002 23.5298 5.68906 23.8362 6.28791L24.0915 6.68714C24.4489 7.23608 24.7043 7.83493 24.9085 8.43378ZM12.5 17.0173C14.7979 17.0173 16.6362 15.2207 16.6362 12.975C16.6362 10.7294 14.7979 8.93282 12.5 8.93282C10.2021 8.93282 8.36383 10.7294 8.36383 12.975C8.36383 15.2207 10.2021 17.0173 12.5 17.0173Z" fill="white"></path></svg>