<svg width="26" height="30" viewBox="0 0 26 30" fill="none" xmlns="http://www.w3.org/2000/svg"><g clip-path="url(#clip0_194_73262)"><path d="M12.9268 19.9777C9.8374 19.9777 6.74797 19.9777 3.6748 19.9777C1.30081 19.961 0 18.6247 0 16.186C0 12.0434 0 7.90089 0 3.75835C0 1.38641 1.33333 0 3.62602 0C9.88618 0 16.1301 0 22.3902 0C24.6829 0 26 1.36971 26 3.74165C26 7.91759 26 12.0935 26 16.2528C26 18.5746 24.6667 19.9443 22.4228 19.961C19.252 19.9777 16.0813 19.9777 12.9268 19.9777Z" fill="white"></path><path d="M13.0079 24.9889C9.98353 24.9889 6.94288 24.9889 3.91849 24.9889C3.38191 24.9889 2.8941 24.8887 2.61768 24.3375C2.39004 23.8865 2.43882 23.4689 2.69898 23.0847C3.02418 22.5836 3.54451 22.5669 4.08109 22.5669C6.92662 22.5669 9.77215 22.5669 12.6014 22.5669C15.7722 22.5669 18.9429 22.5669 22.0974 22.5669C22.6339 22.5669 23.1217 22.6838 23.3982 23.235C23.6258 23.6693 23.577 24.1036 23.3169 24.4878C22.9917 24.9889 22.4551 25.0056 21.9348 25.0056C18.9591 24.9722 15.9835 24.9889 13.0079 24.9889Z" fill="white"></path><path d="M13.0081 29.9999C10.8455 29.9999 8.6829 29.9999 6.50404 29.9999C6.09754 29.9999 5.69103 29.9832 5.33331 29.7159C4.66664 29.1814 4.78046 28.0957 5.54469 27.6948C5.82111 27.5444 6.1138 27.5444 6.42274 27.5444C10.813 27.5444 15.187 27.5444 19.5772 27.5444C20.813 27.5444 21.4634 28.4631 20.9268 29.3986C20.6179 29.9164 20.1138 29.9999 19.5772 29.9999C17.3821 29.9999 15.187 29.9999 13.0081 29.9999Z" fill="white"></path></g><defs><clipPath id="clip0_194_73262"><rect width="26" height="30" fill="white"></rect></clipPath></defs></svg>