<svg width="26" height="27" viewBox="0 0 26 27" fill="none" xmlns="http://www.w3.org/2000/svg"><path d="M14.4184 0.951076C14.1591 0.356654 13.6033 0 13.0104 0C12.4176 0 11.8618 0.356654 11.6024 0.951076L8.41581 7.92564L1.33867 9.03522C0.745817 9.11448 0.264126 9.55039 0.0788608 10.1844C-0.106405 10.8185 0.0418077 11.4525 0.449392 11.8885L5.56272 17.3175L4.33997 25.0054C4.22881 25.6394 4.48818 26.2735 4.96987 26.6698C5.45156 27.066 6.11852 27.1057 6.63726 26.7887L12.9734 23.1825L19.3094 26.7887C19.8282 27.1057 20.4951 27.066 20.9768 26.6698C21.4585 26.2735 21.7179 25.6394 21.6067 25.0054L20.384 17.3175L25.5344 11.8885C25.9419 11.4525 26.1272 10.7789 25.9049 10.1844C25.7196 9.59002 25.2379 9.15411 24.6451 9.03522L17.605 7.92564L14.4184 0.951076Z" fill="white"></path></svg>