<svg width="23" height="23" viewBox="0 0 23 23" fill="none" xmlns="http://www.w3.org/2000/svg"><path d="M11.5 23C17.839 23 23 17.839 23 11.5C23 5.16098 17.839 0 11.5 0C5.16098 0 0 5.16098 0 11.5C0 17.839 5.16098 23 11.5 23ZM9.70488 15.0902H10.7707V12.2293H9.70488C9.0878 12.2293 8.63902 11.7244 8.63902 11.1634C8.63902 10.6024 9.1439 10.0976 9.70488 10.0976H11.8366C12.4537 10.0976 12.9024 10.6024 12.9024 11.1634V15.0902H13.239C13.8561 15.0902 14.3049 15.5951 14.3049 16.1561C14.3049 16.7171 13.8 17.222 13.239 17.222H9.64878C9.03171 17.222 8.58293 16.7171 8.58293 16.1561C8.58293 15.5951 9.0878 15.0902 9.70488 15.0902ZM11.5 5.72195C12.2854 5.72195 12.9585 6.33902 12.9585 7.18049C12.9585 8.02195 12.3415 8.63902 11.5 8.63902C10.7146 8.63902 10.0415 8.02195 10.0415 7.18049C10.0415 6.33902 10.7146 5.72195 11.5 5.72195Z" fill="white"></path></svg>