<svg width="34" height="19" viewBox="0 0 34 19" fill="none" xmlns="http://www.w3.org/2000/svg"><path d="M23.1803 15.1886C24.0841 15.1317 25.1197 15.2836 26.1553 14.9988C28.8666 14.2584 30.5801 11.6573 30.2411 8.77152C29.9022 5.98064 27.6051 3.85425 24.8184 3.81628C23.5569 3.79729 22.3142 3.81628 21.0527 3.81628C19.7911 3.79729 19.0192 3.09483 19.0003 1.95569C18.9815 0.778586 19.7723 0.000176548 21.0715 0.0191621C23.0485 0.0381477 25.0067 -0.151708 26.9649 0.360903C31.2014 1.46207 34.214 5.506 33.9881 9.85369C33.7433 14.5052 30.4671 18.1694 26.0235 18.8339C24.2724 19.0997 22.5213 18.9668 20.7702 18.9668C19.7158 18.9668 19.0192 18.1314 19.0192 17.1062C19.0003 16.043 19.7347 15.2456 20.8267 15.1886C21.5611 15.1507 22.3142 15.1886 23.1803 15.1886Z" fill="#FEFEFE"></path><path d="M11.085 0.00844179C11.7437 0.00844179 12.4024 -0.0105522 13.0611 0.00844179C14.228 0.0464299 14.9809 0.787197 14.9997 1.88885C14.9997 2.9905 14.2657 3.76926 13.0988 3.78825C11.8378 3.82624 10.5956 3.78825 9.33465 3.78825C6.1916 3.80725 3.72609 6.29547 3.70727 9.44848C3.68845 12.6395 6.17278 15.1467 9.37229 15.1657C10.558 15.1657 11.7625 15.1467 12.9482 15.1657C14.1904 15.1847 14.9809 15.9064 14.9997 17.0271C15.0185 18.1857 14.228 18.9645 12.9294 18.9455C10.9156 18.9645 8.90178 19.1734 6.92561 18.6226C2.7286 17.483 -0.263888 13.3992 0.0184221 9.14457C0.319553 4.43405 3.53789 0.844179 7.97956 0.160394C9.0147 0.00844179 10.0498 0.0274358 11.085 0.00844179Z" fill="#FEFEFE"></path><path d="M16.4341 10.9851C14.6463 10.9851 12.8584 10.9851 11.0705 10.9851C9.77194 10.9851 8.98151 10.3873 9.00033 9.47572C9.01915 8.59402 9.79076 8.01121 11.0517 8.01121C14.6839 7.99626 18.3161 7.99626 21.9671 8.01121C23.2092 8.01121 23.9809 8.59402 23.9997 9.49066C24.0185 10.4022 23.2092 10.9851 21.9107 11C20.0663 11 18.2597 10.9851 16.4341 10.9851Z" fill="#FEFEFE"></path></svg>