<svg width="221" height="37" viewBox="0 0 221 37" fill="none" xmlns="http://www.w3.org/2000/svg" class="w-[15rem]  "><path fill-rule="evenodd" clip-rule="evenodd" d="M40.6593 10.1606C42.8966 7.95596 45.6202 6.90155 48.9274 6.90155C52.2346 6.90155 54.9582 7.95596 57.1954 10.1606C59.4327 12.3653 60.5026 15.1451 60.5026 18.5C60.5026 21.8549 59.4327 24.6347 57.1954 26.8394C54.9582 29.044 52.2346 30.0984 48.9274 30.0984C45.6202 30.0984 42.8966 29.044 40.6593 26.8394C38.4221 24.6347 37.3521 21.8549 37.3521 18.5C37.2548 15.1451 38.4221 12.2694 40.6593 10.1606ZM93.4776 0.670984V8.62694V12.0777V15.5285V22.2383L78.0114 0.670984H72.5643V36.2332H79.6651V14.5699L95.1312 36.329H100.578V25.5933V22.1425V14.5699L116.044 36.329H121.492V0.670984H114.391V22.3342L98.9247 0.670984H93.4776ZM127.133 7.28497H141.238L134.137 16.3912L136.86 20.4171H138.417C140.265 20.4171 141.627 20.8964 142.697 21.7591C143.28 22.3342 143.767 22.9093 143.961 23.6762L148.241 18.0207C146.879 16.6788 145.129 15.7202 143.086 15.1451L149.798 6.51814V0.766839H127.133V7.28497ZM156.217 26.1684C157.093 28.1813 158.357 30.0026 160.108 31.6321C163.707 35.1788 168.182 37 173.434 37C178.687 37 183.064 35.1788 186.761 31.6321C189.192 29.2358 190.846 26.5518 191.624 23.3886H184.134C183.551 24.6347 182.772 25.785 181.702 26.8394C179.465 29.044 176.742 30.0984 173.434 30.0984C170.127 30.0984 167.404 29.044 165.166 26.8394C163.026 24.7306 161.859 22.0466 161.859 18.8834L156.217 26.1684ZM194.445 7.38083H204.172V36.2332H211.273V7.38083H221V0.670984H194.445V7.38083ZM7.10079 0.670984H0V36.2332H7.10079V18.5L20.3297 36.329H28.9868L15.7579 18.5L28.9868 0.670984H20.3297L7.10079 18.5V0.670984ZM149.603 19.5544C147.56 22.3342 145.323 26.5518 142.697 28.7565C141.724 29.6192 140.265 30.0984 138.417 30.0984C135.11 30.0984 133.067 28.7565 132.094 25.9767L125.966 29.4275C126.939 31.9197 128.592 33.7409 130.83 35.0829C133.067 36.329 135.596 37 138.417 37C142.016 37 145.031 35.9456 147.56 33.9326C150.478 31.5363 153.007 26.7435 155.342 23.5803C158.455 19.4585 161.47 13.7073 165.069 10.1606C167.306 7.95596 170.03 6.90155 173.337 6.90155C176.644 6.90155 179.368 7.95596 181.605 10.1606C182.675 11.215 183.453 12.3653 184.037 13.6114H191.527C190.749 10.544 189.095 7.76425 186.663 5.36788C183.064 1.82124 178.59 0 173.337 0C168.085 0 163.707 1.82124 160.011 5.36788C156.12 9.29793 152.91 15.1451 149.603 19.5544ZM35.6012 5.36788C32.0022 8.91451 30.154 13.3238 30.154 18.5C30.154 23.6762 32.0022 28.0855 35.6012 31.6321C39.2003 35.1788 43.6747 37 48.9274 37C54.18 37 58.5572 35.1788 62.2535 31.6321C65.8526 28.0855 67.7007 23.6762 67.7007 18.5C67.7007 13.3238 65.8526 8.91451 62.2535 5.36788C58.5572 1.82124 54.18 0 48.9274 0C43.6747 0 39.2975 1.82124 35.6012 5.36788Z" fill="white"></path></svg>