<svg width="19" height="22" viewBox="0 0 19 22" fill="none" xmlns="http://www.w3.org/2000/svg"><path d="M11.0578 0C4.90389 0 0 4.87826 0 11C0 17.1217 4.90389 22 11.0578 22C14.0386 22 16.7309 20.8522 18.7502 18.8435C19.0386 18.5565 19.0386 18.2696 18.9425 17.887C18.7502 17.6 18.4617 17.4087 18.0771 17.5043C17.5963 17.6 17.1155 17.6 16.6348 17.6C11.827 17.6 7.98085 13.7739 7.98085 8.9913C7.98085 5.73913 9.71163 2.96522 12.404 1.43478C12.6924 1.24348 12.8847 0.956522 12.7886 0.573913C12.6924 0.286957 12.404 0 12.1155 0C11.6347 0 11.3463 0 11.0578 0Z" fill="white"></path></svg>