<svg width="46" height="46" viewBox="0 0 46 46" fill="none" xmlns="http://www.w3.org/2000/svg" class="hover:opacity-70 duration-200"><rect y="0.36377" width="45.5909" height="45.5909" rx="1" fill="white" fill-opacity="0.1"></rect><g clip-path="url(#clip0_194_73357)"><path d="M29.9013 21.3738H24.5705V16.0533C24.5705 15.0654 23.7781 14.2729 22.7901 14.2729C21.8125 14.2729 21.0098 15.0654 21.0098 16.0533V21.3738H15.6893C14.7013 21.3738 13.9089 22.1765 13.9089 23.1542C13.9089 24.1318 14.7013 24.9345 15.6893 24.9345H21.0098V30.2653C21.0098 31.243 21.8022 32.0457 22.7901 32.0457C23.7678 32.0457 24.5705 31.2533 24.5705 30.2653V24.9345H29.9013C30.8789 24.9345 31.6817 24.1421 31.6817 23.1542C31.6817 22.1765 30.8789 21.3738 29.9013 21.3738Z" fill="white"></path></g><defs><clipPath id="clip0_194_73357"><rect x="13.9089" y="14.2729" width="17.7727" height="17.7727" rx="1" fill="white"></rect></clipPath></defs></svg>