<svg width="47" height="46" viewBox="0 0 47 46" fill="none" xmlns="http://www.w3.org/2000/svg" class="hover:opacity-70 duration-200"><rect x="0.86377" y="0.36377" width="45.5909" height="45.5909" rx="1" fill="white" fill-opacity="0.1"></rect><path d="M29.0516 21.0257C29.0516 22.7151 28.5141 24.251 27.5926 25.4797L32.2001 30.0872C32.6609 30.548 32.6609 31.2391 32.2001 31.6999C31.7394 32.1606 31.0482 32.1606 30.5875 31.6999L25.9799 27.0923C24.7512 28.0138 23.2154 28.5514 21.5259 28.5514C17.3791 28.5514 14.0002 25.1725 14.0002 21.0257C14.0002 16.8789 17.3791 13.5 21.5259 13.5C25.6727 13.5 29.0516 16.8789 29.0516 21.0257ZM21.5259 26.1708C24.3673 26.1708 26.7478 23.867 26.7478 20.9489C26.7478 18.0308 24.3673 15.8038 21.5259 15.8038C18.6846 15.8038 16.304 18.1076 16.304 21.0257C16.304 23.9438 18.6078 26.1708 21.5259 26.1708Z" fill="#EFEFF1"></path></svg>