<svg width="28" height="27" viewBox="0 0 28 27" fill="none" xmlns="http://www.w3.org/2000/svg"><g clip-path="url(#clip0_194_73321)"><path d="M19.4819 13.5331C19.4652 16.7192 16.7945 19.2945 13.5863 19.278C10.395 19.245 7.7915 16.6532 7.7915 13.5001C7.7915 10.3305 10.4454 7.70574 13.6535 7.72225C16.8785 7.73875 19.4987 10.3636 19.4819 13.5331Z" fill="#FEFEFE"></path><path d="M19.9694 8.58073C19.3815 8.56422 19.0288 8.33311 18.7936 7.9204C18.5585 7.49119 18.5752 7.02896 18.8944 6.68229C19.751 5.79085 20.6244 4.8994 21.5482 4.07399C22.0186 3.64478 22.6064 3.76034 23.0599 4.17304C23.4967 4.56924 23.6478 5.11401 23.2951 5.59275C22.4721 6.66578 21.4811 7.59024 20.4229 8.43216C20.2885 8.53121 20.0701 8.54771 19.9694 8.58073Z" fill="#FEFEFE"></path><path d="M23.4629 22.0016C23.4293 22.4638 23.211 22.827 22.7743 23.0416C22.3376 23.2562 21.8673 23.2397 21.5313 22.9096C20.6411 22.0841 19.7509 21.2422 18.9278 20.3508C18.4743 19.872 18.5415 19.2612 19.0118 18.799C19.4485 18.3533 20.0364 18.2377 20.5235 18.6339C21.5145 19.4263 22.4047 20.3343 23.2446 21.2918C23.4125 21.4733 23.4797 21.7375 23.4629 22.0016Z" fill="#FEFEFE"></path><path d="M8.63167 7.30947C8.58128 7.82122 8.39651 8.20091 7.9598 8.43202C7.52309 8.66314 7.05278 8.67964 6.70005 8.36599C5.79304 7.50756 4.90282 6.64914 4.06298 5.74119C3.64307 5.29547 3.71026 4.70117 4.14697 4.23894C4.55009 3.80973 5.10438 3.62814 5.57468 3.99132C6.66646 4.80022 7.60707 5.7742 8.4637 6.81422C8.56448 6.94629 8.58128 7.16089 8.63167 7.30947Z" fill="#FEFEFE"></path><path d="M8.63135 19.6082C8.59776 20.0374 8.42979 20.3511 8.16105 20.5987C7.45559 21.292 6.75013 22.0019 6.02788 22.6952C5.37281 23.306 4.70094 23.339 4.18025 22.8273C3.65955 22.332 3.67635 21.6057 4.26423 20.9949C4.98649 20.2355 5.75913 19.5092 6.51498 18.7828C6.9013 18.4031 7.3884 18.3041 7.8923 18.5352C8.3794 18.7663 8.58096 19.1625 8.63135 19.6082Z" fill="#FEFEFE"></path><path d="M14.863 3.21532C14.863 3.76009 14.8966 4.30486 14.863 4.84963C14.8127 5.57599 14.292 6.07123 13.6369 6.05472C12.9818 6.05472 12.4611 5.55948 12.4275 4.83312C12.3939 3.74358 12.3939 2.63753 12.4275 1.54799C12.4443 0.805123 12.9482 0.326385 13.6033 0.293369C14.2752 0.276861 14.8127 0.772106 14.863 1.5645C14.8966 2.12578 14.863 2.67055 14.863 3.21532Z" fill="#FEFEFE"></path><path d="M12.4108 23.7518C12.4108 23.2401 12.394 22.7118 12.4108 22.2001C12.4612 21.4572 12.9315 20.9785 13.5865 20.9455C14.2248 20.9124 14.8127 21.3912 14.8463 22.1175C14.8967 23.2566 14.8967 24.4122 14.8463 25.5677C14.8127 26.2611 14.3424 26.6573 13.6369 26.7068C12.9819 26.7563 12.4948 26.2281 12.4108 25.5017C12.4108 25.4522 12.4108 25.3862 12.4108 25.3366C12.4108 24.7919 12.4108 24.2636 12.4108 23.7518Z" fill="#FEFEFE"></path><path d="M3.15604 14.6721C2.56816 14.6721 1.98028 14.6887 1.3924 14.6721C0.636548 14.6391 0.300615 14.1769 0.250226 13.5001C0.216632 12.8562 0.686938 12.3445 1.3756 12.328C2.55136 12.295 3.71033 12.295 4.88609 12.328C5.62514 12.3445 5.97787 12.8067 6.02826 13.5001C6.06186 14.1439 5.59155 14.6226 4.90289 14.6887C4.8525 14.6887 4.78531 14.6887 4.73492 14.6887C4.21423 14.6887 3.67674 14.6887 3.15604 14.6721Z" fill="#FEFEFE"></path><path d="M24.0676 14.6721C23.5133 14.6721 22.959 14.6887 22.3879 14.6721C21.6321 14.6391 21.2794 14.1934 21.2458 13.5166C21.1954 12.8728 21.6825 12.3445 22.3711 12.328C23.5469 12.295 24.7059 12.295 25.8816 12.328C26.6207 12.3445 26.9902 12.8067 27.0238 13.4836C27.0574 14.1274 26.5871 14.6391 25.8984 14.6721C25.2938 14.7052 24.6723 14.6721 24.0676 14.6721Z" fill="#FEFEFE"></path></g><defs><clipPath id="clip0_194_73321"><rect width="26.7738" height="26.3801" fill="white" transform="translate(0.25 0.310059)"></rect></clipPath></defs></svg>